<svg xmlns="http://www.w3.org/2000/svg" xmlns:xlink="http://www.w3.org/1999/xlink" width="500" zoomAndPan="magnify" viewBox="0 0 375 374.999991" height="500" preserveAspectRatio="xMidYMid meet" version="1.0"><defs><g/><clipPath id="a443b58828"><path d="M 15.070312 168.554688 L 98.871094 168.554688 L 98.871094 206.445312 L 15.070312 206.445312 Z M 15.070312 168.554688 " clip-rule="nonzero"/></clipPath><clipPath id="7ec8496212"><path d="M 15.070312 181 L 18 181 L 18 195 L 15.070312 195 Z M 15.070312 181 " clip-rule="nonzero"/></clipPath></defs><g fill="#231f20" fill-opacity="1"><g transform="translate(109.290919, 202.875671)"><g><path d="M 0.484375 0 L 0.484375 -32.328125 L 10.328125 -32.328125 C 12.117188 -32.328125 13.679688 -32.023438 15.015625 -31.421875 C 16.347656 -30.816406 17.457031 -30 18.34375 -28.96875 C 19.226562 -27.945312 19.890625 -26.796875 20.328125 -25.515625 C 20.773438 -24.234375 21 -22.910156 21 -21.546875 C 21 -19.929688 20.765625 -18.410156 20.296875 -16.984375 C 19.835938 -15.566406 19.175781 -14.3125 18.3125 -13.21875 C 17.445312 -12.125 16.398438 -11.265625 15.171875 -10.640625 C 13.941406 -10.015625 12.550781 -9.691406 11 -9.671875 C 10.875 -9.671875 10.820312 -9.671875 10.84375 -9.671875 C 10.863281 -9.671875 10.847656 -9.664062 10.796875 -9.65625 C 10.742188 -9.644531 10.539062 -9.640625 10.1875 -9.640625 L 10.1875 0 Z M 10.1875 -22.65625 L 10.1875 -17.828125 C 10.488281 -17.828125 10.769531 -18.039062 11.03125 -18.46875 C 11.289062 -18.90625 11.421875 -19.546875 11.421875 -20.390625 C 11.421875 -21.222656 11.296875 -21.804688 11.046875 -22.140625 C 10.796875 -22.484375 10.507812 -22.65625 10.1875 -22.65625 Z M 10.1875 -22.65625 "/></g></g></g><g fill="#231f20" fill-opacity="1"><g transform="translate(130.775687, 202.875671)"><g><path d="M 11.90625 0.484375 C 9.664062 0.484375 7.804688 0.0859375 6.328125 -0.703125 C 4.847656 -1.503906 3.679688 -2.640625 2.828125 -4.109375 C 1.972656 -5.578125 1.367188 -7.332031 1.015625 -9.375 C 0.660156 -11.425781 0.484375 -13.707031 0.484375 -16.21875 C 0.484375 -18.71875 0.660156 -20.976562 1.015625 -23 C 1.367188 -25.03125 1.972656 -26.785156 2.828125 -28.265625 C 3.679688 -29.742188 4.847656 -30.875 6.328125 -31.65625 C 7.804688 -32.445312 9.664062 -32.84375 11.90625 -32.84375 C 14.15625 -32.84375 16.015625 -32.445312 17.484375 -31.65625 C 18.960938 -30.875 20.128906 -29.742188 20.984375 -28.265625 C 21.835938 -26.785156 22.441406 -25.03125 22.796875 -23 C 23.148438 -20.976562 23.328125 -18.71875 23.328125 -16.21875 C 23.328125 -13.707031 23.148438 -11.425781 22.796875 -9.375 C 22.441406 -7.332031 21.835938 -5.578125 20.984375 -4.109375 C 20.128906 -2.640625 18.960938 -1.503906 17.484375 -0.703125 C 16.015625 0.0859375 14.15625 0.484375 11.90625 0.484375 Z M 11.90625 -23 C 11.238281 -22.976562 10.785156 -22.34375 10.546875 -21.09375 C 10.304688 -19.84375 10.1875 -18.097656 10.1875 -15.859375 C 10.1875 -13.890625 10.304688 -12.304688 10.546875 -11.109375 C 10.785156 -9.910156 11.238281 -9.3125 11.90625 -9.3125 C 12.570312 -9.3125 13.035156 -9.910156 13.296875 -11.109375 C 13.554688 -12.304688 13.675781 -13.890625 13.65625 -15.859375 C 13.632812 -18.097656 13.503906 -19.847656 13.265625 -21.109375 C 13.023438 -22.367188 12.570312 -23 11.90625 -23 Z M 11.90625 -23 "/></g></g></g><g fill="#231f20" fill-opacity="1"><g transform="translate(154.590136, 202.875671)"><g><path d="M 8.375 0 L 0 -32.328125 L 9.703125 -32.328125 L 13.015625 -16.140625 L 16.28125 -32.328125 L 24.234375 -32.328125 L 27.53125 -16.140625 L 30.8125 -32.328125 L 40.515625 -32.328125 L 32.140625 0 L 22.90625 0 L 20.25 -13.140625 L 17.609375 0 Z M 8.375 0 "/></g></g></g><g fill="#231f20" fill-opacity="1"><g transform="translate(195.100574, 202.875671)"><g><path d="M 10.875 0 L 0.484375 0 L 0.484375 -32.328125 L 10.875 -32.328125 C 13.4375 -32.328125 15.554688 -31.644531 17.234375 -30.28125 C 18.921875 -28.925781 20.179688 -27.035156 21.015625 -24.609375 C 21.847656 -22.179688 22.253906 -19.367188 22.234375 -16.171875 C 22.234375 -12.878906 21.742188 -10.019531 20.765625 -7.59375 C 19.796875 -5.164062 18.460938 -3.289062 16.765625 -1.96875 C 15.078125 -0.65625 13.113281 0 10.875 0 Z M 10.875 -23.171875 L 10.15625 -23.171875 L 10.15625 -9.453125 L 10.875 -9.453125 C 11.175781 -9.453125 11.429688 -9.695312 11.640625 -10.1875 C 11.859375 -10.6875 12.039062 -11.34375 12.1875 -12.15625 C 12.34375 -12.976562 12.445312 -13.875 12.5 -14.84375 C 12.5625 -15.820312 12.570312 -16.796875 12.53125 -17.765625 C 12.5 -18.734375 12.410156 -19.628906 12.265625 -20.453125 C 12.128906 -21.273438 11.945312 -21.929688 11.71875 -22.421875 C 11.5 -22.921875 11.21875 -23.171875 10.875 -23.171875 Z M 10.875 -23.171875 "/></g></g></g><g fill="#231f20" fill-opacity="1"><g transform="translate(217.814893, 202.875671)"><g><path d="M 19.671875 0 L 0.484375 0 L 0.484375 -32.328125 L 19.671875 -32.328125 L 19.671875 -22.625 L 10.1875 -22.625 L 10.1875 -21 L 17.734375 -21 L 17.734375 -11.296875 L 10.1875 -11.296875 L 10.1875 -9.703125 L 19.671875 -9.703125 Z M 19.671875 0 "/></g></g></g><g fill="#231f20" fill-opacity="1"><g transform="translate(237.973039, 202.875671)"><g><path d="M 0.484375 0 L 0.484375 -32.328125 L 11.875 -32.328125 C 12.957031 -32.328125 14.109375 -32.15625 15.328125 -31.8125 C 16.546875 -31.46875 17.691406 -30.898438 18.765625 -30.109375 C 19.847656 -29.316406 20.726562 -28.273438 21.40625 -26.984375 C 22.082031 -25.691406 22.421875 -24.097656 22.421875 -22.203125 C 22.421875 -20.671875 22.226562 -19.367188 21.84375 -18.296875 C 21.457031 -17.234375 20.984375 -16.367188 20.421875 -15.703125 C 19.859375 -15.046875 19.304688 -14.546875 18.765625 -14.203125 L 23.5625 0.03125 L 14.109375 0 L 10.1875 -12.234375 L 10.1875 0 Z M 11 -23.265625 L 10.1875 -23.296875 L 10.1875 -18.609375 L 10.96875 -18.609375 C 11.375 -18.609375 11.707031 -18.757812 11.96875 -19.0625 C 12.226562 -19.363281 12.40625 -19.738281 12.5 -20.1875 C 12.601562 -20.644531 12.613281 -21.101562 12.53125 -21.5625 C 12.457031 -22.03125 12.296875 -22.425781 12.046875 -22.75 C 11.804688 -23.070312 11.457031 -23.242188 11 -23.265625 Z M 11 -23.265625 "/></g></g></g><g fill="#231f20" fill-opacity="1"><g transform="translate(260.849145, 202.875671)"><g/></g></g><g fill="#231f20" fill-opacity="1"><g transform="translate(271.203251, 202.875671)"><g><path d="M 0.484375 0 L 0.484375 -32.328125 L 10.328125 -32.328125 C 12.117188 -32.328125 13.679688 -32.023438 15.015625 -31.421875 C 16.347656 -30.816406 17.457031 -30 18.34375 -28.96875 C 19.226562 -27.945312 19.890625 -26.796875 20.328125 -25.515625 C 20.773438 -24.234375 21 -22.910156 21 -21.546875 C 21 -19.929688 20.765625 -18.410156 20.296875 -16.984375 C 19.835938 -15.566406 19.175781 -14.3125 18.3125 -13.21875 C 17.445312 -12.125 16.398438 -11.265625 15.171875 -10.640625 C 13.941406 -10.015625 12.550781 -9.691406 11 -9.671875 C 10.875 -9.671875 10.820312 -9.671875 10.84375 -9.671875 C 10.863281 -9.671875 10.847656 -9.664062 10.796875 -9.65625 C 10.742188 -9.644531 10.539062 -9.640625 10.1875 -9.640625 L 10.1875 0 Z M 10.1875 -22.65625 L 10.1875 -17.828125 C 10.488281 -17.828125 10.769531 -18.039062 11.03125 -18.46875 C 11.289062 -18.90625 11.421875 -19.546875 11.421875 -20.390625 C 11.421875 -21.222656 11.296875 -21.804688 11.046875 -22.140625 C 10.796875 -22.484375 10.507812 -22.65625 10.1875 -22.65625 Z M 10.1875 -22.65625 "/></g></g></g><g fill="#231f20" fill-opacity="1"><g transform="translate(292.688009, 202.875671)"><g><path d="M 9.765625 0 L 0 0 L 8.34375 -32.328125 L 18.125 -32.328125 L 26.5 0 L 16.734375 0 L 16.046875 -3.078125 L 10.421875 -3.078125 Z M 13.234375 -16.171875 L 12.171875 -11.15625 L 14.328125 -11.15625 Z M 13.234375 -16.171875 "/></g></g></g><g fill="#231f20" fill-opacity="1"><g transform="translate(319.155691, 202.875671)"><g><path d="M 0.484375 -32.328125 L 10.1875 -32.359375 L 10.1875 -9.703125 L 17.828125 -9.703125 L 17.828125 0 L 0.484375 0 Z M 0.484375 -32.328125 "/></g></g></g><g fill="#231f20" fill-opacity="1"><g transform="translate(337.469518, 202.875671)"><g><path d="M 8.09375 -11.296875 C 8.09375 -11.804688 7.90625 -12.300781 7.53125 -12.78125 C 7.164062 -13.257812 6.695312 -13.75 6.125 -14.25 C 5.5625 -14.757812 4.945312 -15.3125 4.28125 -15.90625 C 3.625 -16.5 3.007812 -17.175781 2.4375 -17.9375 C 1.863281 -18.707031 1.394531 -19.597656 1.03125 -20.609375 C 0.664062 -21.628906 0.484375 -22.796875 0.484375 -24.109375 C 0.484375 -25.921875 0.835938 -27.4375 1.546875 -28.65625 C 2.265625 -29.875 3.1875 -30.796875 4.3125 -31.421875 C 5.445312 -32.046875 6.640625 -32.359375 7.890625 -32.359375 L 17.828125 -32.359375 L 17.828125 -22.65625 L 15.234375 -22.65625 C 14.804688 -22.65625 14.351562 -22.628906 13.875 -22.578125 C 13.40625 -22.535156 13.007812 -22.394531 12.6875 -22.15625 C 12.363281 -21.925781 12.203125 -21.507812 12.203125 -20.90625 C 12.203125 -20.382812 12.375 -19.9375 12.71875 -19.5625 C 13.0625 -19.1875 13.507812 -18.816406 14.0625 -18.453125 C 14.613281 -18.097656 15.195312 -17.691406 15.8125 -17.234375 C 16.425781 -16.785156 17.003906 -16.238281 17.546875 -15.59375 C 18.097656 -14.945312 18.546875 -14.140625 18.890625 -13.171875 C 19.242188 -12.203125 19.421875 -11.003906 19.421875 -9.578125 C 19.421875 -7.722656 19.0625 -6.070312 18.34375 -4.625 C 17.632812 -3.175781 16.617188 -2.039062 15.296875 -1.21875 C 13.984375 -0.40625 12.421875 0 10.609375 0 L 0.9375 0 L 0.9375 -9.703125 L 4.65625 -9.703125 C 5.800781 -9.703125 6.660156 -9.816406 7.234375 -10.046875 C 7.804688 -10.273438 8.09375 -10.691406 8.09375 -11.296875 Z M 8.09375 -11.296875 "/></g></g></g><g clip-path="url(#a443b58828)"><path fill="#231f20" d="M 49.300781 168.816406 C 43.332031 169.226562 29.253906 171.269531 24.085938 175.890625 C 20.222656 176.109375 18.1875 178.148438 17.378906 180.421875 L 15.070312 180.421875 L 15.070312 195.304688 L 17.386719 195.304688 C 17.757812 199.34375 19.460938 199.671875 22.257812 200.234375 C 23.382812 202.441406 25.175781 203.863281 27.335938 204.339844 C 31.664062 205.292969 38.394531 205.964844 42.824219 206.414062 C 48.0625 206.949219 50.457031 200.625 53.691406 197.519531 C 55.535156 195.742188 58.40625 195.742188 60.25 197.519531 C 63.484375 200.625 65.875 206.949219 71.117188 206.414062 C 75.546875 205.964844 82.277344 205.292969 86.605469 204.339844 C 88.765625 203.863281 90.554688 202.441406 91.683594 200.234375 C 94.480469 199.671875 96.183594 199.34375 96.554688 195.304688 L 98.867188 195.304688 L 98.867188 180.421875 L 96.5625 180.421875 C 95.753906 178.148438 93.71875 176.109375 89.855469 175.890625 C 84.6875 171.269531 70.609375 169.226562 64.640625 168.816406 C 59.523438 168.46875 54.417969 168.46875 49.300781 168.816406 " fill-opacity="1" fill-rule="evenodd"/></g><g clip-path="url(#7ec8496212)"><path fill="#e4e2dd" d="M 15.824219 181.132812 L 17.019531 181.132812 C 16.960938 181.539062 16.933594 181.726562 16.929688 182.171875 C 16.902344 186.425781 16.996094 190.917969 17.15625 194.097656 L 15.824219 194.097656 L 15.824219 181.132812 " fill-opacity="1" fill-rule="evenodd"/></g><path fill="#e4e2dd" d="M 53.15625 196.625 C 49.738281 199.382812 48.105469 205.871094 42.789062 205.328125 C 38.53125 204.890625 31.921875 204.25 27.761719 203.332031 C 24.496094 202.613281 22.164062 200.589844 21.777344 195.304688 C 21.511719 191.699219 21.46875 187.699219 21.46875 182.042969 C 21.46875 173.652344 39.1875 169.382812 56.96875 169.324219 C 74.753906 169.382812 92.234375 173.652344 92.234375 182.042969 C 92.234375 187.699219 92.191406 191.699219 91.925781 195.304688 C 91.539062 200.589844 89.445312 202.613281 86.179688 203.332031 C 82.019531 204.25 75.410156 204.890625 71.15625 205.328125 C 65.835938 205.871094 63.964844 199.382812 60.546875 196.625 C 58.613281 195.066406 55.089844 195.066406 53.15625 196.625 Z M 91.210938 186.304688 C 91.199219 190.203125 90.875 195.929688 90.738281 198.457031 C 91.585938 198.261719 91.753906 188.476562 91.210938 186.304688 Z M 44.582031 202.859375 C 41.296875 203.164062 34.054688 202.34375 29.980469 201.597656 C 27.777344 201.195312 28.390625 201.640625 29.980469 201.933594 C 34.398438 202.742188 41.492188 203.925781 45.941406 203.183594 C 45.207031 203.761719 43.628906 203.953125 41.167969 203.863281 C 36.949219 203.710938 31.105469 202.851562 29.5 202.558594 C 26.300781 201.972656 23.886719 200.3125 23.511719 196.019531 C 23.257812 193.097656 23.070312 186.019531 23.070312 181.421875 C 23.070312 178.621094 25.585938 176.085938 29.648438 174.320312 C 35.78125 171.65625 45.445312 170.203125 55.292969 170.0625 C 54.964844 170.53125 47.957031 170.949219 45.457031 171.226562 C 39.917969 171.835938 34.792969 172.910156 31.007812 174.308594 C 29.898438 174.636719 27.792969 175.96875 29.746094 175.300781 C 36.003906 172.871094 46.441406 171.554688 56.839844 171.648438 C 68.425781 171.753906 79.984375 173.347656 85.980469 176.640625 C 87.054688 177.289062 87.523438 177.25 87.101562 176.878906 C 86.101562 176.082031 84.683594 175.257812 83.261719 174.546875 C 85.066406 174.84375 86.722656 175.941406 87.855469 176.847656 C 89.742188 178.355469 90.5625 180.160156 90.5625 181.808594 C 90.5625 186.496094 90.375 194.195312 90.113281 197.175781 C 89.878906 199.828125 88.101562 201.894531 85.726562 202.328125 C 86.761719 201.667969 87.59375 201.164062 88.105469 200.683594 C 88.605469 200.210938 88.816406 199.714844 87.894531 200.25 C 87.585938 200.425781 87.238281 200.636719 86.984375 200.757812 C 86.132812 201.160156 85.113281 201.386719 83.960938 201.597656 C 80.878906 202.160156 75.746094 202.769531 72.125 202.898438 C 71.734375 202.910156 70.265625 203.078125 71.652344 203.273438 C 72.617188 203.410156 74.535156 203.265625 74.90625 203.65625 C 72.429688 203.863281 70.589844 203.710938 69.121094 203.578125 C 66.644531 203.351562 63.882812 198.292969 60.445312 195.265625 C 59.410156 194.351562 58.433594 193.953125 57.078125 193.757812 C 58.53125 193.195312 60.441406 194.484375 61.800781 195.621094 C 62.65625 196.335938 62.398438 195.59375 61.976562 195.214844 C 61.253906 194.5625 60.453125 194.003906 59.554688 193.621094 C 57.679688 192.820312 56.019531 192.820312 54.144531 193.621094 C 49.355469 195.671875 47.394531 202.597656 44.582031 202.859375 " fill-opacity="1" fill-rule="evenodd"/><path fill="#e4e2dd" d="M 19.585938 198.554688 C 18.71875 198.035156 18.289062 197.097656 18.101562 194.804688 C 17.878906 192.035156 17.71875 187.128906 17.71875 182.785156 C 17.71875 179.644531 20.355469 177.058594 23.019531 176.875 C 21.300781 177.773438 20.492188 179.566406 20.492188 181.789062 C 20.492188 187.675781 20.535156 191.839844 20.8125 195.589844 C 20.902344 196.824219 20.96875 197.601562 21.195312 198.398438 C 19.667969 197.941406 19.203125 197.292969 18.960938 194.234375 C 18.757812 191.660156 18.523438 186.285156 18.492188 182.183594 C 18.480469 180.78125 18.160156 182.707031 18.160156 184.308594 C 18.160156 188.652344 18.316406 192.355469 18.539062 195.121094 C 18.6875 197.011719 19.003906 197.980469 19.585938 198.554688 " fill-opacity="1" fill-rule="evenodd"/><path fill="#e4e2dd" d="M 44.394531 202.21875 C 41.21875 202.554688 33.65625 201.742188 29.714844 201.023438 C 26.621094 200.457031 25.265625 200.074219 24.902344 195.914062 C 24.652344 193.085938 24.40625 186.527344 24.40625 182.078125 C 24.40625 169.019531 89.539062 169.019531 89.539062 182.078125 C 89.539062 186.527344 89.289062 193.085938 89.042969 195.914062 C 88.675781 200.074219 87.324219 200.457031 84.226562 201.023438 C 80.28125 201.742188 72.722656 202.554688 69.546875 202.21875 C 67.027344 201.953125 64.609375 194.59375 59.421875 192.882812 C 57.769531 192.335938 56.171875 192.335938 54.519531 192.882812 C 49.332031 194.59375 46.914062 201.953125 44.394531 202.21875 " fill-opacity="1" fill-rule="evenodd"/><path fill="#e4e2dd" d="M 97.976562 181.132812 L 96.921875 181.132812 C 96.980469 181.539062 97.007812 181.726562 97.011719 182.171875 C 97.039062 186.425781 96.949219 190.917969 96.785156 194.097656 L 97.976562 194.097656 L 97.976562 181.132812 " fill-opacity="1" fill-rule="evenodd"/><path fill="#e4e2dd" d="M 95.601562 194.644531 C 95.824219 191.878906 95.984375 187.128906 95.984375 182.785156 C 95.984375 179.644531 93.585938 177.058594 90.925781 176.875 C 92.644531 177.773438 93.449219 179.566406 93.449219 181.789062 C 93.449219 187.675781 93.40625 191.839844 93.132812 195.589844 C 93.039062 196.824219 92.972656 197.601562 92.746094 198.398438 C 94.273438 197.941406 94.433594 197.339844 94.679688 194.28125 C 94.882812 191.707031 95.054688 186.332031 95.082031 182.230469 C 95.09375 180.828125 95.542969 182.707031 95.542969 184.308594 C 95.542969 188.652344 95.480469 191.894531 95.261719 194.660156 C 95.167969 195.800781 95.476562 196.160156 95.601562 194.644531 " fill-opacity="1" fill-rule="evenodd"/><path fill="#231f20" d="M 68.648438 188.015625 C 68.578125 188.054688 68.496094 188.085938 68.40625 188.109375 C 68.109375 188.195312 67.789062 187.835938 67.554688 187.9375 C 67.0625 187.664062 66.644531 187.523438 66.167969 186.992188 C 66.074219 186.882812 66.082031 186.570312 65.90625 186.363281 C 65.523438 185.914062 64.617188 185.289062 64.277344 185.132812 C 64.59375 185.609375 65.058594 185.992188 65.476562 186.449219 C 65.804688 186.800781 66.082031 187.230469 66.355469 187.59375 C 66.214844 187.648438 66.082031 187.722656 65.9375 187.777344 C 66.066406 187.867188 66.429688 188.175781 66.558594 188.269531 C 66.226562 188.238281 65.761719 188.179688 65.464844 188.222656 C 65.214844 189.03125 64.441406 188.351562 63.992188 188.152344 C 63.609375 187.949219 63.230469 187.730469 62.75 187.550781 C 62.085938 187.488281 61.421875 187.425781 60.757812 187.363281 C 60.21875 187.3125 59.617188 186.859375 58.996094 186.367188 C 58.671875 186.109375 58.359375 185.738281 58.011719 185.632812 C 58.011719 185.632812 57.710938 185.90625 57.460938 185.824219 C 57.164062 185.726562 56.664062 185.320312 56.519531 185.222656 C 56.0625 184.921875 56.070312 183.925781 55.640625 183.757812 C 55.851562 184.496094 56.15625 185.128906 56.3125 185.816406 C 56.417969 186.066406 56.523438 186.316406 56.625 186.566406 C 56.835938 186.824219 57.050781 187.082031 57.257812 187.339844 C 57.617188 187.617188 57.972656 187.894531 58.328125 188.171875 C 58.003906 187.789062 57.679688 187.410156 57.355469 187.027344 C 57.089844 186.636719 57.066406 186.394531 56.796875 186.003906 C 57.003906 186.039062 57.214844 186.203125 57.410156 186.265625 C 57.609375 186.332031 57.792969 186.300781 58 186.335938 C 58.882812 186.988281 59.839844 187.207031 60.78125 187.652344 C 61.238281 187.722656 61.59375 187.96875 62.046875 188.039062 C 62.375 188.164062 62.496094 188.199219 62.824219 188.324219 C 63.183594 188.5625 62.867188 188.703125 62.621094 188.851562 C 62.21875 189.089844 61.988281 189.234375 61.59375 189.492188 C 61.347656 189.648438 61.125 190.058594 60.859375 190.222656 C 59.957031 190.464844 59.246094 190.15625 58.246094 190.664062 C 58.703125 190.671875 60.699219 190.628906 60.972656 190.511719 C 60.511719 191.015625 60.289062 191.070312 60.136719 191.121094 C 59.9375 191.488281 59.703125 191.996094 59.5 192.367188 C 59.824219 192.1875 60.566406 191.332031 60.886719 191.449219 C 61.03125 191.355469 61.261719 190.824219 61.46875 190.402344 C 61.949219 190.191406 62.347656 189.984375 62.875 189.773438 C 63.246094 189.59375 63.679688 189.511719 64.097656 189.476562 C 65.429688 189.363281 63.316406 190.441406 63.167969 190.835938 C 63.457031 190.628906 64.832031 189.859375 65.015625 189.746094 C 64.539062 190.558594 64.042969 190.945312 63.617188 191.652344 C 64.417969 191.242188 64.210938 191.167969 65.105469 190.691406 C 65.019531 190.890625 64.78125 191.328125 64.757812 191.621094 C 64.722656 192.113281 64.871094 192.574219 64.855469 193 C 64.976562 192.574219 65.011719 192.195312 65.132812 191.804688 C 65.328125 191.152344 65.621094 190.539062 65.898438 189.878906 C 65.980469 189.636719 66.433594 189.289062 66.964844 188.976562 C 67.261719 188.980469 67.429688 189.214844 67.675781 189.351562 C 68.035156 189.554688 68.71875 190.023438 68.890625 190.144531 C 69.167969 190.332031 69.664062 190.476562 70.050781 190.847656 C 70.207031 190.996094 70.855469 191.449219 71.335938 191.722656 C 70.933594 191.296875 70.535156 190.871094 70.132812 190.441406 C 69.753906 190.25 69.390625 190.035156 69.011719 189.84375 C 68.714844 189.59375 68.359375 189.367188 68.066406 189.117188 C 68.34375 188.945312 68.742188 188.628906 68.972656 188.25 C 69.148438 188.378906 69.355469 188.664062 69.5 188.835938 C 69.695312 189.070312 71.660156 189.148438 71.851562 189.15625 C 71.558594 188.519531 69.121094 188.074219 68.871094 187.175781 C 69.894531 187.964844 71.699219 187.402344 72.203125 188.023438 C 72.375 188.238281 72.769531 188.640625 73.042969 188.871094 C 73.40625 189.171875 73.878906 189.21875 74.292969 189.421875 C 75.011719 189.769531 75.675781 190.175781 76.179688 190.226562 C 75.367188 189.246094 74.402344 188.714844 74.148438 188.441406 C 74.992188 187.734375 75.890625 189.1875 76.207031 189.054688 C 76.222656 188.035156 75.480469 188.101562 75.410156 187.253906 C 75.328125 186.265625 75.789062 184.972656 76.707031 184.910156 C 76.859375 184.898438 77.289062 184.386719 77.734375 184.015625 C 78.019531 183.777344 78.359375 183.660156 78.5 183.554688 C 78.863281 183.289062 78.234375 182.664062 78.457031 182.511719 C 78.882812 182.222656 79.449219 182.039062 79.808594 182.082031 C 80.054688 182.113281 80.109375 182.109375 80.382812 182.332031 C 80.589844 182.558594 80.101562 182.785156 80.238281 183.074219 C 80.402344 183.421875 80.734375 183.167969 81.113281 183.789062 C 81.359375 184.1875 81.636719 184.792969 81.921875 185.148438 C 81.863281 184.910156 81.804688 184.445312 81.75 184.203125 C 82.121094 184.386719 82.589844 184.746094 82.925781 185.015625 C 83.046875 185.109375 83.082031 185.257812 83.035156 185.320312 C 82.933594 185.457031 82.203125 185.496094 82.160156 185.507812 C 82.792969 185.867188 83.476562 185.675781 84.074219 186.085938 C 84.308594 186.246094 84.515625 186.539062 84.761719 186.972656 C 84.089844 186.628906 83.511719 186.535156 82.839844 186.476562 C 82.554688 186.453125 82.0625 186.257812 81.8125 186.136719 C 80.769531 185.710938 80.324219 185.335938 79.28125 185.636719 C 80 185.804688 80.652344 185.785156 81.289062 186.457031 C 81.09375 186.5 80.3125 186.753906 80.113281 186.796875 C 80.441406 186.828125 81.351562 186.964844 81.628906 187.179688 C 81.941406 187.421875 81.984375 187.816406 82.113281 188.34375 C 82.175781 187.925781 82.28125 187.882812 82.550781 187.765625 C 83.261719 187.457031 83.183594 188.578125 83.613281 189.171875 C 83.640625 188.519531 83.589844 187.847656 83.710938 187.742188 C 83.84375 187.625 84.066406 187.71875 84.09375 188.175781 C 84.125 188.757812 84.371094 188.230469 84.417969 188.054688 C 84.4375 187.980469 84.835938 188.003906 85.378906 188.40625 C 85.867188 188.765625 86.460938 189.117188 87.214844 189.558594 C 88 190.019531 88.59375 190.699219 89.328125 190.976562 L 89.351562 190.445312 C 88 189.550781 87.789062 188.777344 86.285156 187.777344 C 85.789062 187.445312 85.773438 186.554688 85.058594 185.578125 C 84.816406 185.246094 84.722656 185.035156 84.363281 184.777344 C 83.667969 184.285156 82.53125 183.886719 81.664062 183.503906 C 81.394531 183.386719 80.949219 181.828125 80.28125 181.375 C 80.066406 181.191406 79.296875 181.394531 79.066406 181.390625 C 78.476562 181.378906 78.347656 181.640625 77.757812 181.347656 C 77.605469 181.273438 77.085938 181.03125 76.761719 180.914062 C 76.238281 180.726562 76.050781 180.941406 75.757812 181.101562 C 75.382812 181.304688 74.984375 181.5 74.507812 181.9375 C 74.269531 182.15625 73.914062 182.214844 73.65625 182.445312 C 73.042969 183 72.734375 183.277344 72.421875 183.449219 C 72.082031 183.242188 71.269531 182.902344 70.835938 182.722656 C 70.070312 182.398438 69.203125 182.371094 68.761719 182.632812 C 68.066406 183.042969 66.820312 183.269531 66.398438 183.570312 C 65.914062 182.984375 65.613281 182.683594 65.109375 182.148438 C 64.054688 181.03125 62.742188 180.988281 61.152344 180.996094 C 60.121094 181 59.214844 179.800781 58.230469 179.441406 C 57.296875 179.101562 56.734375 178.003906 55.941406 177.527344 C 55.3125 177.152344 54.722656 177.453125 54.007812 177.507812 C 53.644531 177.535156 51.402344 178.15625 50.648438 178.648438 C 50.425781 178.792969 49.765625 178.886719 49.140625 179.121094 C 47.664062 179.671875 45.917969 179.925781 45.789062 179.882812 C 45.605469 179.816406 44.753906 180.414062 44.558594 180.613281 C 43.875 180.957031 43.285156 179.621094 42.8125 179.667969 C 42.589844 179.6875 42.042969 179.398438 41.769531 179.421875 C 41.226562 179.367188 40.925781 178.511719 40.40625 178.457031 C 40.195312 178.421875 39.464844 179.039062 39.253906 179.160156 C 39.085938 179.164062 38.273438 179.835938 38.09375 180.144531 C 37.910156 180.457031 36.910156 180.820312 36.578125 181.320312 C 36.492188 181.445312 35.082031 182.9375 34.703125 183.074219 C 33.179688 183.625 32.378906 185.582031 31.0625 186.214844 C 29.859375 186.789062 27.316406 187.804688 25.515625 189.039062 C 25.144531 189.292969 24.835938 189.582031 24.570312 189.871094 C 24.589844 190.375 24.609375 190.871094 24.628906 191.355469 C 25.007812 190.871094 25.703125 189.496094 25.992188 189.332031 C 26.871094 188.84375 27.4375 188.386719 28.261719 188.035156 C 29.289062 187.59375 30.488281 187.59375 30.53125 187.589844 C 30.332031 187.980469 29.269531 189.285156 28.914062 190.386719 C 29.671875 189.90625 30.957031 187.914062 31.613281 187.003906 C 31.613281 187.003906 32.355469 185.65625 33.542969 184.617188 C 33.992188 184.222656 34.648438 184.261719 35.195312 183.867188 C 36.101562 183.210938 37.199219 181.46875 38.101562 180.78125 C 38.558594 180.691406 38.878906 180.101562 39.261719 179.757812 C 39.023438 180.488281 38.894531 181.234375 38.101562 181.695312 C 38.117188 182.101562 37.25 183.144531 37.171875 183.523438 C 37.621094 183.152344 37.960938 183 38.164062 182.945312 C 38.035156 183.222656 38.085938 183.792969 37.992188 184.324219 C 38.488281 184.152344 38.828125 183.742188 39.363281 183.546875 C 39.699219 182.609375 40.53125 182.640625 40.3125 183.496094 C 40.242188 183.769531 40.316406 184.140625 40.246094 184.414062 C 40.296875 184.359375 40.523438 184.207031 40.734375 184.09375 C 41.289062 183.792969 41.21875 184.414062 41.949219 184.105469 C 42.457031 183.894531 42.355469 182.699219 42.742188 182.003906 C 42.953125 181.59375 43.6875 182.609375 43.804688 181.671875 C 43.804688 181.671875 44.683594 181.378906 44.808594 181.390625 C 45.410156 181.457031 44.457031 182.695312 44.265625 182.773438 C 44.257812 183.097656 44.136719 183.746094 43.957031 184.101562 C 44.050781 184.257812 44.148438 184.453125 44.246094 184.667969 C 44.332031 184.859375 44.296875 185.59375 44.363281 185.898438 C 44.519531 185.515625 44.605469 184.398438 44.628906 184.195312 C 44.773438 184.039062 44.929688 183.890625 45.074219 183.734375 C 45.074219 183.734375 45.269531 183.492188 45.300781 183.296875 C 45.328125 183.101562 45.878906 182.863281 45.878906 182.863281 C 45.878906 182.863281 45.75 182.441406 45.699219 182.203125 C 45.59375 181.667969 45.632812 181.234375 45.664062 180.789062 C 45.816406 180.929688 46.09375 181.433594 46.222656 181.394531 C 46.863281 181.199219 47.425781 180.488281 48.066406 180.292969 C 49.953125 179.550781 51.703125 179.070312 53.589844 178.332031 C 53.289062 178.703125 52.894531 178.992188 52.597656 179.359375 C 52.597656 179.359375 52.21875 179.460938 51.832031 179.660156 C 51.46875 179.84375 51.113281 179.929688 50.765625 180.007812 C 50.945312 180.089844 51.484375 180.289062 51.667969 180.320312 C 51.207031 180.554688 50.839844 180.605469 50.402344 180.800781 C 50.292969 180.835938 50.03125 181.222656 49.914062 181.445312 C 49.804688 181.671875 47.609375 182.195312 47.515625 182.265625 C 47.757812 182.3125 47.949219 182.371094 48.054688 182.441406 C 48.019531 182.609375 47.871094 182.878906 47.859375 182.925781 C 47.828125 183.03125 48.183594 183.53125 48.183594 183.53125 C 48.152344 183.726562 48.019531 184.023438 47.988281 184.21875 C 48.101562 184.371094 48.195312 184.601562 48.246094 184.933594 C 48.234375 185.242188 48.132812 186.222656 48.121094 186.53125 C 48.230469 186.320312 48.398438 185.78125 48.519531 185.660156 C 48.429688 185.085938 48.527344 184.429688 48.441406 183.824219 C 48.523438 183.867188 48.8125 183.863281 48.917969 183.890625 C 49.039062 184.050781 49.375 184.710938 49.582031 185.15625 C 49.472656 184.679688 49.34375 184.027344 49.085938 183.640625 C 48.835938 183.4375 48.570312 183.25 48.449219 183.199219 C 48.453125 183.03125 48.4375 182.859375 48.46875 182.660156 C 48.6875 182.503906 48.945312 182.457031 49.167969 182.304688 C 49.4375 182.121094 49.75 182.042969 50.023438 181.859375 C 50.023438 181.859375 50.140625 181.121094 50.394531 181.085938 C 50.53125 181.042969 51.335938 181.1875 51.46875 181.234375 C 51.347656 181.503906 51.300781 181.742188 51.265625 181.851562 C 51.339844 181.96875 51.632812 182.054688 51.449219 182.34375 C 51.347656 182.511719 51.285156 182.78125 51.222656 183 C 51.113281 183.363281 51.015625 183.6875 50.851562 183.972656 C 50.492188 184.589844 50.070312 185.09375 49.785156 185.605469 C 50.4375 185.125 51.074219 184.3125 51.675781 183.695312 C 52.007812 183.34375 52.40625 183.25 52.742188 182.898438 C 52.886719 182.671875 52.96875 182.183594 53.113281 181.957031 C 53.152344 181.707031 53.1875 181.460938 53.222656 181.210938 C 53.257812 181.53125 53.296875 181.855469 53.332031 182.179688 C 53.292969 182.6875 53.253906 183.199219 53.21875 183.710938 C 52.941406 184.367188 52.664062 185.019531 52.390625 185.671875 C 52.359375 185.703125 52.339844 185.726562 52.328125 185.742188 C 52.152344 185.835938 51.976562 185.929688 51.804688 186.023438 C 51.460938 186.097656 51.113281 186.167969 50.769531 186.242188 C 50.972656 186.347656 51.175781 186.453125 51.378906 186.554688 C 51.160156 186.664062 50.945312 186.773438 50.726562 186.882812 C 50.539062 187.058594 50.355469 187.238281 50.171875 187.414062 C 50.234375 187.480469 50.324219 187.527344 50.382812 187.589844 C 50.375 187.609375 50.355469 187.65625 50.335938 187.707031 C 50.1875 187.769531 50.039062 187.839844 49.894531 187.921875 C 49.671875 187.945312 49.414062 187.980469 49.414062 187.980469 C 49.414062 187.980469 49.109375 188.066406 48.742188 188.429688 C 48.375 188.792969 46.527344 189.164062 46.527344 189.164062 C 45.878906 189.171875 45.226562 189.175781 44.574219 189.183594 C 44.234375 189.230469 43.878906 189.21875 43.523438 189.21875 C 43.132812 189.125 42.84375 189.167969 42.421875 188.839844 C 42.253906 188.703125 42.015625 188.554688 41.855469 188.523438 C 41.699219 188.488281 41.566406 188.5 41.386719 188.453125 C 41.148438 188.390625 40.539062 188.269531 40.539062 188.269531 C 40.640625 188.339844 40.804688 188.523438 40.90625 188.59375 C 41.546875 188.796875 42.023438 188.957031 42.640625 189.226562 C 42.117188 189.171875 40.957031 189.074219 40.472656 189.203125 C 40.238281 189.265625 39.480469 189.816406 38.789062 189.914062 C 38.273438 189.988281 37.238281 190.285156 36.785156 190.25 C 37.640625 190.617188 38.707031 190.351562 39.636719 190.179688 C 40.835938 189.960938 41.875 189.703125 42.617188 189.773438 C 43.613281 189.871094 44.835938 190.050781 45.46875 190.09375 C 46.066406 190.128906 43.027344 192.894531 43.261719 193.257812 C 43.46875 193.101562 47.019531 190.324219 47.339844 190.167969 C 47.621094 190.191406 47.527344 190.777344 47.714844 190.988281 C 48.015625 190.636719 48.453125 189.59375 48.875 189.007812 C 49.132812 188.933594 49.363281 188.835938 49.53125 188.710938 C 49.570312 188.679688 49.621094 188.636719 49.675781 188.589844 C 50.105469 188.570312 50.558594 188.605469 50.960938 188.527344 C 51.253906 188.472656 51.535156 188.394531 51.8125 188.308594 C 52.0625 188.230469 52.34375 188.269531 52.59375 188.1875 C 52.914062 188.082031 53.226562 187.929688 53.542969 187.777344 C 53.324219 187.746094 52.945312 187.875 52.566406 187.964844 C 52.265625 188.035156 51.949219 188.089844 51.671875 188.085938 C 51.933594 187.449219 52.261719 186.859375 52.660156 186.265625 C 52.804688 186.054688 53.042969 185.988281 53.191406 185.773438 C 53.34375 185.554688 53.410156 185.183594 53.480469 184.972656 C 53.691406 185.179688 53.898438 185.351562 54.109375 185.5625 C 53.933594 184.742188 53.757812 183.921875 53.585938 183.101562 C 53.609375 182.671875 53.636719 182.242188 53.664062 181.816406 C 53.585938 181.375 53.507812 180.933594 53.429688 180.492188 C 53.425781 180.410156 53.425781 180.324219 53.425781 180.242188 C 53.8125 179.066406 54.445312 178.765625 55.257812 178.398438 C 55.453125 178.308594 55.617188 178.210938 55.867188 178.273438 C 56 178.542969 56.101562 178.886719 56.230469 179.15625 C 56.28125 179.433594 56.3125 180.238281 56.371094 180.410156 C 56.402344 180.527344 56.324219 181.332031 56.453125 181.574219 C 56.613281 181.875 56.839844 182.066406 57 182.363281 C 56.878906 182.015625 56.753906 181.671875 56.628906 181.324219 C 56.664062 181.039062 56.699219 180.753906 56.734375 180.46875 C 56.734375 180.46875 56.707031 180.117188 56.554688 180.011719 C 56.398438 179.90625 56.53125 178.945312 56.53125 178.945312 C 56.742188 179.148438 56.964844 179.394531 57.195312 179.589844 C 57.664062 179.992188 58.160156 180.320312 58.625 180.617188 C 59.199219 180.980469 59.84375 181.542969 60.425781 181.792969 C 60.425781 181.792969 61.417969 181.96875 61.601562 182.074219 C 61.691406 182.128906 62.601562 182.808594 63.449219 183.296875 C 64.296875 183.785156 65.082031 184.082031 65.082031 184.082031 C 64.832031 183.722656 63.773438 183.058594 63.488281 182.8125 C 63.207031 182.5625 62.902344 182.160156 62.523438 181.882812 C 63.375 181.890625 63.679688 181.941406 64.28125 182.324219 C 64.515625 182.476562 64.875 182.5 65.113281 182.785156 C 65.449219 183.183594 65.78125 183.835938 66.046875 184.488281 C 66.265625 185.03125 66.761719 185.273438 67.273438 185.871094 C 67.625 186.28125 67.839844 187.070312 68.082031 187.460938 C 68.214844 187.683594 68.421875 187.851562 68.648438 188.015625 Z M 44.394531 202.21875 C 41.21875 202.554688 33.65625 201.742188 29.714844 201.023438 C 27.054688 200.539062 25.679688 200.183594 25.117188 197.464844 C 25.667969 197.3125 26.570312 197.203125 26.699219 197.011719 C 26.394531 197.046875 25.648438 197.039062 25.28125 196.875 C 25.554688 196.761719 26.855469 196.40625 26.984375 196.140625 C 26.78125 196.183594 25.472656 196.191406 25.21875 196.160156 C 25.578125 195.9375 27.058594 195.691406 27.105469 195.191406 C 26.78125 195.289062 26.046875 195.433594 25.519531 195.421875 C 25.847656 195.167969 26.84375 194.71875 27.128906 194.367188 C 26.902344 194.5 25.566406 194.925781 25.40625 194.902344 C 25.699219 194.726562 26.761719 194.011719 26.964844 193.730469 C 26.714844 193.84375 26.253906 194.050781 25.964844 194.050781 C 26.195312 193.832031 26.886719 193.414062 27.050781 193.0625 C 26.863281 193.09375 26.351562 193.289062 26.125 193.257812 C 26.421875 193.078125 26.929688 192.660156 27.203125 192.472656 C 27.023438 192.5 26.039062 192.984375 25.894531 192.898438 C 26.054688 192.746094 26.214844 192.59375 26.375 192.4375 C 26.246094 192.460938 26.035156 192.457031 25.875 192.433594 C 26.175781 192.25 26.898438 191.925781 27.167969 191.722656 C 26.96875 191.820312 26.339844 191.976562 26.183594 191.898438 C 26.320312 191.757812 26.746094 191.480469 27.023438 191.136719 C 26.71875 191.148438 26.359375 191.242188 26.066406 191.238281 C 26.558594 190.808594 26.988281 190.792969 27.289062 190.347656 C 27.3125 190.3125 27.671875 189.320312 27.726562 189.488281 C 27.773438 189.632812 27.804688 189.988281 27.789062 190.222656 C 27.945312 190.097656 28.1875 189.980469 28.339844 190.058594 C 28.21875 190.410156 27.855469 190.417969 27.863281 190.777344 C 28.191406 190.746094 28.488281 190.855469 28.660156 191 C 28.375 191.023438 28.25 190.972656 27.984375 191.078125 C 28.214844 191.433594 28.617188 191.746094 28.769531 191.898438 C 28.613281 191.976562 28.382812 191.933594 28.183594 191.835938 C 28.453125 192.039062 28.777344 192.25 29.078125 192.433594 C 28.921875 192.457031 28.707031 192.460938 28.578125 192.4375 C 28.738281 192.59375 28.898438 192.746094 29.058594 192.898438 C 28.914062 192.984375 28.660156 192.921875 28.480469 192.894531 C 28.753906 193.082031 29.117188 193.332031 29.410156 193.511719 C 29.183594 193.542969 28.921875 193.515625 28.734375 193.484375 C 28.898438 193.835938 29.433594 194.058594 29.585938 194.140625 C 30.117188 193.757812 31.0625 193.171875 31.363281 192.808594 C 31.085938 192.964844 30.046875 193.308594 29.851562 193.285156 C 30.207031 193.066406 31.097656 192.496094 31.339844 192.15625 C 31.039062 192.289062 30.289062 192.554688 29.941406 192.554688 C 30.21875 192.292969 30.636719 191.996094 30.832031 191.566406 C 30.609375 191.605469 30.289062 191.636719 30.019531 191.601562 C 30.371094 191.382812 30.808594 191.085938 31.136719 190.855469 C 30.921875 190.886719 30.613281 190.964844 30.441406 190.859375 C 30.632812 190.675781 30.828125 190.492188 31.023438 190.304688 C 30.867188 190.335938 30.609375 190.328125 30.417969 190.300781 C 30.78125 190.078125 31.171875 189.824219 31.5 189.578125 C 31.261719 189.699219 30.980469 189.75 30.789062 189.652344 C 31.097656 189.441406 31.546875 189.226562 31.84375 188.863281 C 31.648438 188.804688 31.515625 188.679688 31.359375 188.789062 C 31.367188 188.445312 31.460938 188.480469 31.992188 188.394531 C 31.996094 188.390625 32 188.382812 32.003906 188.378906 C 31.953125 188.207031 31.859375 188.167969 31.773438 188.050781 C 31.519531 187.695312 32.011719 187.9375 32.089844 187.992188 C 32.097656 187.808594 32.574219 185.953125 32.542969 187.902344 C 32.542969 188.019531 32.550781 188.09375 32.574219 188.171875 C 33.128906 188.121094 33.386719 188.328125 33.054688 188.4375 C 32.96875 188.464844 32.882812 188.472656 32.753906 188.527344 C 32.796875 188.667969 33.628906 188.964844 33.699219 189.089844 C 33.738281 189.152344 33.546875 189.148438 33.054688 188.988281 C 33.304688 189.273438 33.660156 189.476562 33.914062 189.652344 C 33.722656 189.75 33.441406 189.699219 33.203125 189.578125 C 33.851562 190.070312 33.824219 190.113281 34.214844 190.445312 C 33.984375 190.402344 33.925781 190.5 33.695312 190.460938 C 33.882812 190.613281 34.070312 190.816406 34.261719 190.925781 C 34.1875 190.957031 33.722656 190.9375 33.71875 190.9375 C 33.992188 191.125 34.425781 191.441406 34.683594 191.601562 C 34.414062 191.636719 34.09375 191.605469 33.871094 191.566406 C 34.066406 191.996094 34.484375 192.292969 34.761719 192.554688 C 34.410156 192.554688 33.921875 192.53125 33.621094 192.398438 C 33.863281 192.738281 34.496094 193.066406 34.851562 193.285156 C 34.65625 193.308594 34.179688 193.234375 33.90625 193.074219 C 34.246094 193.492188 35.035156 194.144531 35.429688 194.449219 C 34.796875 194.464844 34.308594 194.273438 33.914062 194.152344 C 34.414062 194.542969 35.035156 194.910156 35.601562 195.257812 C 35.296875 195.300781 34.363281 195.195312 34.117188 195.140625 C 34.292969 195.429688 35.335938 195.769531 35.597656 196.019531 C 35.152344 196.214844 34.792969 196.078125 34.394531 196.085938 C 34.675781 196.5 35.398438 196.578125 35.839844 196.675781 C 35.542969 196.828125 35.261719 196.90625 35 196.9375 C 35.539062 197.597656 35.609375 197.578125 36.320312 197.78125 C 36.675781 197.582031 36.980469 197.402344 37.320312 197.164062 C 36.996094 197.25 36.363281 197.347656 35.84375 197.339844 C 36.164062 197.113281 37.144531 196.714844 37.425781 196.40625 C 37.199219 196.523438 35.890625 196.898438 35.730469 196.878906 C 36.019531 196.722656 37.0625 196.089844 37.261719 195.839844 C 37.015625 195.9375 36.566406 196.121094 36.28125 196.121094 C 36.507812 195.929688 37.1875 195.558594 37.347656 195.246094 C 37.164062 195.273438 36.660156 195.449219 36.441406 195.421875 C 36.726562 195.261719 37.230469 194.890625 37.5 194.722656 C 37.324219 194.746094 36.351562 195.175781 36.210938 195.101562 C 36.367188 194.964844 36.527344 194.828125 36.6875 194.695312 C 36.558594 194.714844 36.347656 194.710938 36.191406 194.691406 C 36.488281 194.527344 37.269531 193.875 37.53125 193.691406 C 37.339844 193.78125 36.648438 194.089844 36.496094 194.019531 C 37.835938 192.792969 37.609375 193.070312 36.726562 192.386719 C 36.980469 192.402344 37.128906 192.351562 37.558594 192.609375 C 37.578125 192.605469 37.597656 192.605469 37.617188 192.601562 C 37.527344 192.390625 37.414062 192.160156 37.21875 191.949219 C 37.4375 191.894531 37.527344 192.082031 37.664062 192.164062 C 37.707031 191.6875 37.820312 191.128906 37.964844 190.890625 C 38 191.394531 37.96875 191.878906 38.109375 192.324219 C 38.203125 192.632812 38.378906 192.925781 38.710938 193.191406 C 39.058594 193.46875 38.523438 193.371094 38.296875 193.203125 C 38.410156 193.472656 38.773438 193.878906 38.988281 194.074219 C 38.832031 194.140625 38.582031 193.957031 38.371094 193.882812 C 38.621094 194.058594 39.019531 194.511719 39.304688 194.667969 C 39.609375 194.507812 39.933594 194.320312 40.019531 194.136719 C 39.84375 194.167969 39.257812 194.269531 39.046875 194.242188 C 39.320312 194.074219 40.183594 193.558594 40.4375 193.382812 C 40.269531 193.40625 39.355469 193.859375 39.222656 193.777344 C 39.371094 193.636719 39.519531 193.492188 39.671875 193.351562 C 39.550781 193.375 39.351562 193.367188 39.203125 193.347656 C 39.484375 193.175781 40.15625 192.875 40.402344 192.6875 C 40.21875 192.78125 39.855469 192.71875 39.710938 192.644531 C 39.898438 192.449219 40.078125 192.484375 40.507812 192.054688 C 40.261719 191.972656 40.066406 192.089844 39.910156 191.972656 C 39.660156 191.78125 40.265625 191.957031 40.597656 191.503906 C 40.699219 191.367188 40.902344 191.175781 40.917969 190.90625 C 40.996094 189.589844 41.199219 190.703125 41.210938 191.144531 C 41.273438 191.101562 41.65625 190.910156 41.457031 191.1875 C 40.996094 191.835938 41.910156 191.429688 41.953125 191.769531 C 41.773438 191.730469 41.535156 191.804688 41.363281 191.863281 C 41.625 192.421875 42.109375 192.265625 42.375 192.527344 C 42.230469 192.601562 41.898438 192.882812 41.714844 192.792969 C 41.964844 192.980469 42.265625 193.175781 42.546875 193.347656 C 42.398438 193.367188 42.199219 193.375 42.078125 193.351562 C 42.230469 193.492188 42.378906 193.636719 42.527344 193.777344 C 42.394531 193.859375 42.15625 193.796875 41.992188 193.773438 C 42.246094 193.949219 42.582031 194.179688 42.851562 194.347656 C 42.644531 194.375 42.398438 194.351562 42.226562 194.320312 C 42.378906 194.648438 42.695312 194.878906 42.910156 195.078125 C 42.644531 195.078125 42.265625 195.058594 42.035156 194.957031 C 42.222656 195.21875 42.707031 195.472656 42.976562 195.640625 C 42.832031 195.65625 42.464844 195.601562 42.253906 195.476562 C 42.515625 195.800781 43.121094 196.300781 43.425781 196.535156 C 42.9375 196.546875 42.5625 196.398438 42.257812 196.304688 C 42.644531 196.609375 43.121094 196.886719 43.558594 197.15625 C 43.324219 197.1875 42.261719 197.027344 42.070312 196.988281 C 42.207031 197.210938 42.867188 197.390625 43.070312 197.585938 C 42.726562 197.734375 42.09375 197.355469 41.789062 197.363281 C 42.003906 197.679688 42.089844 197.738281 42.277344 197.878906 C 42.050781 197.996094 41.925781 197.835938 41.726562 197.859375 C 42.066406 198.167969 42.105469 198.195312 42.320312 198.359375 C 42.1875 198.417969 42.125 198.390625 42.007812 198.40625 C 42.148438 198.539062 42.878906 198.960938 43.128906 199.121094 C 43.410156 198.953125 43.722656 198.746094 43.804688 198.632812 C 43.636719 198.707031 43.195312 198.734375 43 198.734375 C 43.15625 198.585938 43.820312 198.347656 43.929688 198.109375 C 43.804688 198.128906 43.378906 198.203125 43.226562 198.183594 C 43.425781 198.0625 44.050781 197.6875 44.234375 197.558594 C 44.113281 197.578125 43.449219 197.902344 43.355469 197.847656 C 43.460938 197.742188 43.570312 197.640625 43.679688 197.539062 C 43.589844 197.554688 43.449219 197.550781 43.339844 197.535156 C 43.542969 197.410156 44.027344 197.195312 44.210938 197.054688 C 44.078125 197.125 43.652344 197.226562 43.546875 197.175781 C 43.753906 196.964844 44.144531 196.804688 44.304688 196.652344 C 44.246094 196.640625 44.117188 196.628906 44.0625 196.609375 C 43.832031 196.535156 44.164062 196.316406 44.40625 196.433594 C 44.492188 196.320312 44.457031 195.75 44.457031 195.59375 C 44.457031 194.878906 44.714844 196.050781 44.761719 196.269531 C 44.875 196.214844 45.113281 196.136719 44.972656 196.335938 C 44.933594 196.386719 44.894531 196.417969 44.863281 196.460938 C 44.964844 196.789062 45.410156 196.476562 45.417969 196.859375 C 45.3125 196.785156 45.167969 196.804688 45.035156 196.84375 C 45.214844 197.101562 45.410156 197.03125 45.554688 197.175781 C 45.449219 197.226562 45.292969 197.199219 45.160156 197.132812 C 45.339844 197.269531 45.558594 197.410156 45.761719 197.535156 C 45.65625 197.550781 45.511719 197.554688 45.421875 197.539062 C 45.53125 197.640625 45.640625 197.742188 45.75 197.847656 C 45.652344 197.902344 45.480469 197.859375 45.359375 197.84375 C 45.542969 197.96875 45.785156 198.136719 45.984375 198.257812 C 45.832031 198.277344 45.65625 198.261719 45.527344 198.238281 C 45.640625 198.476562 45.871094 198.644531 46.027344 198.789062 C 45.832031 198.789062 45.558594 198.773438 45.390625 198.703125 C 45.527344 198.890625 45.878906 199.074219 46.074219 199.195312 C 45.96875 199.207031 45.703125 199.167969 45.550781 199.078125 C 45.742188 199.3125 46.179688 199.671875 46.398438 199.84375 C 46.042969 199.851562 45.773438 199.746094 45.554688 199.679688 C 45.832031 199.898438 46.179688 200.097656 46.496094 200.292969 C 46.324219 200.316406 45.554688 200.203125 45.417969 200.171875 C 45.515625 200.332031 45.996094 200.464844 46.140625 200.605469 C 45.894531 200.714844 45.433594 200.4375 45.214844 200.441406 C 45.371094 200.671875 45.429688 200.714844 45.566406 200.820312 C 45.402344 200.902344 45.3125 200.789062 45.167969 200.804688 C 45.414062 201.027344 45.441406 201.046875 45.597656 201.164062 C 45.5 201.207031 45.457031 201.1875 45.371094 201.199219 C 45.414062 201.238281 45.597656 201.359375 45.757812 201.460938 C 45.296875 201.894531 44.847656 202.171875 44.394531 202.21875 Z M 88.855469 197.304688 C 88.3125 200.171875 86.9375 200.527344 84.226562 201.023438 C 80.28125 201.742188 72.722656 202.554688 69.546875 202.21875 C 68.828125 202.144531 68.121094 201.492188 67.355469 200.5625 C 67.671875 200.496094 68.164062 200.417969 68.371094 200.113281 C 68.21875 200.097656 67.917969 200.207031 67.746094 200.128906 C 67.890625 200.03125 68.183594 199.925781 68.347656 199.707031 C 68.117188 199.703125 67.640625 199.964844 67.382812 199.859375 C 67.535156 199.726562 68.035156 199.601562 68.132812 199.445312 C 67.992188 199.472656 66.988281 199.613281 66.8125 199.59375 C 67.140625 199.40625 67.703125 199.183594 67.992188 198.972656 C 67.761719 199.039062 67.480469 199.140625 67.113281 199.132812 C 67.34375 198.96875 67.800781 198.621094 67.996094 198.398438 C 67.835938 198.484375 67.5625 198.523438 67.449219 198.511719 C 67.65625 198.394531 68.019531 198.21875 68.164062 198.039062 C 67.988281 198.109375 67.703125 198.125 67.503906 198.125 C 67.664062 197.984375 67.902344 197.824219 68.019531 197.597656 C 67.886719 197.617188 67.703125 197.636719 67.546875 197.613281 C 67.75 197.5 68.003906 197.339844 68.195312 197.21875 C 68.070312 197.234375 67.890625 197.277344 67.792969 197.222656 C 67.902344 197.121094 68.015625 197.023438 68.128906 196.925781 C 68.039062 196.941406 67.890625 196.9375 67.777344 196.921875 C 67.988281 196.804688 68.214844 196.667969 68.402344 196.539062 C 68.265625 196.601562 68.101562 196.628906 67.992188 196.578125 C 68.324219 196.273438 68.457031 196.113281 68.585938 195.832031 C 68.40625 195.777344 68.421875 195.871094 68.21875 196 C 68.222656 195.746094 68.292969 195.71875 68.628906 195.542969 C 68.589844 195.410156 68.527344 195.359375 68.460938 195.269531 C 68.257812 195.007812 68.652344 195.1875 68.714844 195.230469 C 68.761719 195.21875 68.890625 194.6875 68.96875 194.472656 C 69.015625 194.671875 69.09375 195.074219 69.066406 195.402344 C 69.332031 195.199219 69.710938 195.5 69.421875 195.554688 C 68.78125 195.679688 69.191406 195.828125 69.996094 196.359375 C 69.882812 196.410156 69.421875 196.332031 69.28125 196.269531 C 69.46875 196.402344 70.082031 196.804688 70.292969 196.921875 C 70.183594 196.9375 70.035156 196.941406 69.941406 196.925781 C 70.054688 197.023438 70.167969 197.121094 70.28125 197.222656 C 70.179688 197.277344 69.488281 196.964844 69.363281 196.945312 C 69.554688 197.070312 70.207031 197.425781 70.414062 197.542969 C 70.253906 197.5625 69.8125 197.492188 69.679688 197.472656 C 69.792969 197.699219 70.484375 197.929688 70.648438 198.070312 C 70.445312 198.070312 69.984375 198.046875 69.8125 197.972656 C 69.894531 198.082031 70.222656 198.277344 70.511719 198.441406 C 70.773438 198.289062 71.53125 197.882812 71.679688 197.757812 C 71.558594 197.742188 71.492188 197.765625 71.355469 197.710938 C 71.578125 197.554688 71.621094 197.527344 71.972656 197.234375 C 71.765625 197.210938 71.636719 197.363281 71.398438 197.253906 C 71.59375 197.117188 71.683594 197.0625 71.90625 196.757812 C 71.589844 196.75 70.929688 197.117188 70.578125 196.972656 C 70.785156 196.785156 71.472656 196.613281 71.613281 196.402344 C 71.417969 196.4375 70.3125 196.59375 70.070312 196.5625 C 70.523438 196.304688 71.015625 196.035156 71.417969 195.75 C 71.101562 195.835938 70.714844 195.976562 70.207031 195.964844 C 70.519531 195.742188 71.152344 195.265625 71.425781 194.953125 C 71.203125 195.074219 70.824219 195.128906 70.671875 195.109375 C 70.953125 194.949219 71.457031 194.707031 71.652344 194.457031 C 71.410156 194.554688 71.019531 194.574219 70.742188 194.574219 C 70.964844 194.378906 71.296875 194.164062 71.453125 193.847656 C 71.273438 193.875 71.019531 193.898438 70.800781 193.871094 C 71.085938 193.710938 71.433594 193.492188 71.695312 193.324219 C 71.523438 193.347656 71.277344 193.40625 71.140625 193.328125 C 71.292969 193.191406 71.449219 193.054688 71.605469 192.921875 C 71.480469 192.941406 71.277344 192.9375 71.121094 192.917969 C 71.414062 192.753906 71.726562 192.566406 71.984375 192.386719 C 71.792969 192.472656 71.570312 192.511719 71.417969 192.441406 C 71.636719 192.238281 72 192.308594 72.273438 191.867188 C 72.175781 191.867188 71.527344 192.179688 71.714844 191.988281 C 71.894531 191.738281 72.382812 191.398438 72.457031 191.40625 C 72.503906 191.148438 72.238281 191.199219 72.074219 191.199219 C 72.144531 191.046875 72.238281 190.890625 72.542969 190.980469 C 72.589844 190.746094 72.660156 190.375 72.675781 190.144531 C 72.925781 190.519531 72.730469 191.199219 72.984375 191.59375 C 73.234375 191.988281 73.757812 191.816406 74.105469 192.230469 C 73.953125 192.300781 73.347656 192.210938 73.15625 192.121094 C 73.414062 192.300781 74.304688 192.753906 74.59375 192.917969 C 74.441406 192.9375 74.238281 192.941406 74.109375 192.921875 C 74.265625 193.054688 74.421875 193.191406 74.578125 193.328125 C 74.4375 193.40625 73.484375 192.972656 73.3125 192.949219 C 73.535156 193.089844 74.179688 193.722656 74.554688 193.933594 C 74.804688 193.722656 75.097656 193.160156 75.351562 192.386719 C 75.175781 192.492188 75.09375 192.464844 74.832031 192.636719 C 75.03125 192.261719 75.011719 192.289062 75.359375 192.039062 C 75.308594 191.863281 75.242188 191.78125 75.152344 191.667969 C 74.890625 191.328125 75.339844 191.484375 75.425781 191.535156 C 75.480469 191.527344 75.671875 190.789062 75.808594 190.527344 C 75.871094 190.789062 75.914062 191.339844 75.878906 191.757812 C 76.222656 191.5 76.59375 191.878906 76.222656 191.960938 C 75.300781 192.164062 76.886719 192.402344 76.492188 192.535156 C 76.40625 192.566406 76.40625 192.667969 76.105469 192.550781 C 76.535156 193.285156 76.898438 193.140625 77.125 193.332031 C 76.964844 193.398438 76.296875 193.355469 76.09375 193.269531 C 76.367188 193.445312 77.132812 194.042969 77.441406 194.203125 C 77.277344 194.222656 77.058594 194.226562 76.925781 194.203125 C 77.089844 194.335938 77.257812 194.464844 77.421875 194.59375 C 77.273438 194.667969 76.265625 194.257812 76.082031 194.234375 C 76.359375 194.394531 76.882812 194.746094 77.183594 194.898438 C 76.953125 194.925781 76.429688 194.761719 76.238281 194.734375 C 76.40625 195.035156 77.113281 195.386719 77.347656 195.570312 C 77.054688 195.570312 76.582031 195.394531 76.328125 195.300781 C 76.535156 195.539062 77.621094 196.144531 77.917969 196.296875 C 77.753906 196.316406 76.390625 195.957031 76.15625 195.84375 C 76.449219 196.136719 77.46875 196.519531 77.800781 196.734375 C 77.261719 196.746094 76.605469 196.652344 76.265625 196.566406 C 76.695312 196.839844 77.0625 197.035156 77.542969 197.28125 C 77.28125 197.308594 76.515625 197.378906 76.304688 197.34375 C 76.4375 197.570312 77.28125 197.875 77.5625 197.96875 C 77.1875 198.109375 76.777344 198.035156 76.46875 198.003906 C 76.734375 198.328125 77.867188 198.957031 78 198.964844 C 78.796875 198.875 79.300781 198.214844 79.582031 197.855469 C 79.351562 197.832031 79.105469 197.765625 78.84375 197.644531 C 79.230469 197.5625 79.871094 197.5 80.117188 197.167969 C 79.769531 197.160156 79.449219 197.269531 79.058594 197.113281 C 79.289062 196.910156 80.207031 196.636719 80.359375 196.402344 C 80.144531 196.441406 79.320312 196.527344 79.050781 196.496094 C 79.550781 196.210938 80.097656 195.914062 80.542969 195.597656 C 80.191406 195.695312 79.761719 195.851562 79.207031 195.839844 C 79.550781 195.59375 80.246094 195.066406 80.550781 194.722656 C 80.304688 194.851562 79.886719 194.914062 79.714844 194.894531 C 80.027344 194.71875 80.582031 194.449219 80.800781 194.175781 C 80.53125 194.285156 80.101562 194.304688 79.792969 194.304688 C 80.039062 194.09375 80.40625 193.851562 80.578125 193.503906 C 80.382812 193.535156 80.101562 193.5625 79.863281 193.53125 C 80.171875 193.355469 80.558594 193.113281 80.847656 192.925781 C 80.660156 192.953125 80.386719 193.015625 80.234375 192.929688 C 80.402344 192.78125 80.574219 192.632812 80.746094 192.480469 C 80.609375 192.503906 80.382812 192.5 80.214844 192.476562 C 80.535156 192.296875 81.117188 191.664062 81.40625 191.464844 C 81.195312 191.5625 80.71875 191.703125 80.554688 191.625 C 81.117188 191.152344 81.496094 191.160156 81.578125 190.988281 C 81.640625 190.847656 81.511719 190.851562 81.113281 190.570312 C 81.234375 190.507812 81.34375 190.414062 81.675781 190.558594 C 81.578125 190.347656 81.59375 190.160156 81.386719 189.953125 C 81.613281 189.898438 81.707031 190.082031 81.847656 190.160156 C 81.878906 189.871094 81.957031 189.527344 82.027344 189.199219 C 82.316406 189.265625 82.15625 190.027344 82.324219 190.476562 C 82.488281 190.917969 82.960938 191.136719 83.351562 191.644531 C 83.183594 191.722656 82.589844 191.386719 82.382812 191.289062 C 82.558594 191.707031 82.917969 191.878906 83.546875 192.238281 C 83.378906 192.257812 83.226562 192.503906 83.085938 192.480469 C 83.257812 192.632812 83.429688 192.78125 83.601562 192.929688 C 83.449219 193.015625 83.175781 192.953125 82.984375 192.925781 C 83.277344 193.113281 83.660156 193.355469 83.972656 193.53125 C 83.734375 193.5625 83.453125 193.535156 83.253906 193.503906 C 83.429688 193.851562 83.796875 194.09375 84.039062 194.304688 C 83.730469 194.304688 83.074219 194.089844 82.804688 193.980469 C 83.023438 194.257812 83.59375 194.6875 83.90625 194.863281 C 83.734375 194.882812 83.03125 194.636719 82.789062 194.507812 C 82.941406 194.683594 83.332031 195.179688 83.71875 195.445312 C 84.039062 195.199219 84.386719 194.691406 84.578125 194.476562 C 84.332031 194.605469 83.953125 194.675781 83.78125 194.65625 C 84.09375 194.476562 84.613281 194.195312 84.832031 193.917969 C 84.5625 194.027344 84.125 194.050781 83.8125 194.050781 C 84.058594 193.832031 84.433594 193.589844 84.609375 193.238281 C 84.40625 193.269531 84.121094 193.292969 83.878906 193.265625 C 84.195312 193.085938 84.585938 192.839844 84.878906 192.652344 C 84.6875 192.679688 84.414062 192.742188 84.257812 192.65625 C 84.429688 192.503906 84.605469 192.351562 84.777344 192.199219 C 84.636719 192.222656 84.410156 192.21875 84.238281 192.195312 C 84.5625 192.011719 85.105469 191.453125 85.394531 191.25 C 85.179688 191.351562 84.761719 191.328125 84.59375 191.246094 C 84.960938 190.976562 85.226562 190.851562 85.679688 190.285156 C 85.492188 190.289062 85.394531 190.335938 85.207031 190.339844 C 85.3125 190.238281 85.785156 189.566406 85.789062 188.941406 C 85.851562 189.199219 86.03125 189.28125 85.992188 189.703125 C 86.335938 189.441406 86.820312 189.777344 86.457031 189.886719 C 86.3125 189.929688 86.269531 189.832031 86.175781 189.976562 C 86.25 190.035156 87.015625 190.652344 86.773438 190.667969 C 86.65625 190.671875 86.367188 190.503906 86.269531 190.527344 C 86.6875 191.285156 87.132812 191.453125 87.359375 191.664062 C 87.1875 191.742188 86.5 191.328125 86.285156 191.226562 C 86.433594 191.617188 87.367188 192.011719 87.691406 192.195312 C 87.519531 192.21875 87.292969 192.222656 87.152344 192.199219 C 87.324219 192.351562 87.496094 192.503906 87.671875 192.65625 C 87.515625 192.742188 86.453125 192.261719 86.261719 192.234375 C 86.554688 192.421875 87.105469 192.832031 87.421875 193.011719 C 87.179688 193.042969 86.625 192.847656 86.425781 192.820312 C 86.601562 193.171875 87.347656 193.582031 87.59375 193.800781 C 87.285156 193.800781 86.789062 193.59375 86.519531 193.484375 C 86.738281 193.761719 87.882812 194.46875 88.195312 194.648438 C 88.023438 194.667969 86.585938 194.246094 86.339844 194.117188 C 86.644531 194.460938 87.847656 194.972656 88.199219 195.222656 C 87.632812 195.234375 86.808594 195.0625 86.457031 194.960938 C 86.90625 195.285156 87.863281 195.792969 88.371094 196.082031 C 88.097656 196.117188 86.714844 195.914062 86.496094 195.871094 C 86.636719 196.136719 88.066406 196.554688 88.359375 196.667969 C 87.960938 196.828125 87.28125 196.867188 86.953125 196.835938 C 87.125 197.070312 88.140625 197.195312 88.855469 197.304688 Z M 66.300781 199.195312 C 65.738281 198.433594 65.132812 197.601562 64.46875 196.792969 C 64.597656 196.699219 64.777344 196.605469 64.941406 196.488281 C 64.785156 196.5625 64.660156 196.40625 64.535156 196.351562 C 64.726562 196.175781 64.898438 196.304688 65.109375 195.675781 C 64.992188 195.71875 64.882812 195.78125 64.640625 195.984375 C 64.707031 195.675781 64.835938 195.527344 65.140625 195.359375 C 65.003906 195.273438 64.769531 195.441406 64.632812 195.441406 C 64.640625 195.351562 65.046875 195.222656 65.234375 194.910156 C 65.410156 194.621094 65.363281 194.132812 65.429688 194.027344 C 65.539062 194.335938 65.527344 194.457031 65.558594 194.878906 C 65.664062 194.789062 65.722656 194.625 65.847656 194.679688 C 65.796875 194.929688 65.640625 195.070312 65.6875 195.324219 C 65.945312 195.394531 66.222656 195.761719 66.253906 195.902344 C 65.660156 195.609375 65.617188 195.617188 65.808594 195.855469 C 65.96875 196.050781 66.289062 196.195312 66.527344 196.414062 C 66.402344 196.472656 65.863281 196.382812 65.707031 196.308594 C 65.917969 196.460938 66.507812 196.84375 66.746094 196.976562 C 66.621094 196.992188 66.453125 197 66.351562 196.980469 C 66.476562 197.089844 66.605469 197.203125 66.730469 197.3125 C 66.617188 197.375 65.84375 197.023438 65.703125 197.003906 C 65.917969 197.140625 66.316406 197.441406 66.546875 197.570312 C 66.371094 197.59375 65.96875 197.453125 65.824219 197.429688 C 65.953125 197.683594 66.496094 197.984375 66.675781 198.140625 C 66.449219 198.140625 66.089844 197.992188 65.890625 197.914062 C 66.050781 198.117188 66.882812 198.628906 67.113281 198.757812 C 66.984375 198.773438 65.941406 198.46875 65.761719 198.371094 C 65.984375 198.625 66.726562 198.988281 66.984375 199.167969 C 66.777344 199.175781 66.527344 199.195312 66.300781 199.195312 Z M 63.96875 196.203125 C 63.1875 195.316406 62.324219 194.480469 61.351562 193.835938 C 61.589844 193.699219 62 193.472656 62.125 193.269531 C 62.023438 193.292969 61.515625 193.433594 61.441406 193.398438 C 61.59375 193.246094 61.910156 193.167969 62.179688 192.660156 C 62.144531 192.464844 62.046875 192.382812 61.863281 192.230469 C 62.019531 192.15625 62.171875 192.132812 62.296875 192.25 C 62.335938 191.695312 62.414062 191.507812 62.453125 190.953125 C 62.550781 191.113281 62.671875 191.8125 62.714844 192.003906 C 62.8125 191.917969 62.867188 191.917969 63.039062 191.957031 C 62.871094 192.144531 62.785156 192.191406 62.859375 192.429688 C 63.355469 192.1875 63.425781 192.265625 63.414062 192.3125 C 63.402344 192.390625 63.058594 192.585938 62.996094 192.667969 C 62.902344 192.792969 63.117188 192.835938 63.585938 193.304688 C 63.464844 193.363281 63.140625 193.324219 62.992188 193.246094 C 63.195312 193.402344 63.464844 193.71875 63.691406 193.859375 C 63.570312 193.875 63.410156 193.878906 63.3125 193.863281 C 63.433594 193.976562 63.554688 194.09375 63.675781 194.210938 C 63.566406 194.273438 63.375 194.226562 63.242188 194.203125 C 63.445312 194.347656 63.71875 194.535156 63.941406 194.671875 C 63.769531 194.695312 63.570312 194.671875 63.429688 194.648438 C 63.554688 194.917969 63.816406 195.101562 63.988281 195.265625 C 63.769531 195.265625 63.464844 195.25 63.277344 195.167969 C 63.355469 195.277344 64.253906 196.050781 64.324219 196.105469 C 64.265625 196.167969 64.101562 196.179688 63.96875 196.203125 Z M 52.035156 194.230469 C 51.070312 194.96875 50.222656 195.878906 49.453125 196.820312 C 49.25 196.789062 49.128906 196.683594 49.066406 196.675781 C 49.359375 196.496094 50.042969 196.003906 50.246094 195.722656 C 49.996094 195.832031 49.539062 196.039062 49.25 196.039062 C 49.476562 195.824219 50.171875 195.40625 50.335938 195.050781 C 50.148438 195.082031 49.636719 195.277344 49.410156 195.25 C 49.703125 195.066406 50.214844 194.652344 50.488281 194.460938 C 50.308594 194.488281 49.324219 194.972656 49.175781 194.886719 C 49.339844 194.734375 49.5 194.582031 49.660156 194.429688 C 49.53125 194.453125 49.320312 194.445312 49.160156 194.425781 C 49.460938 194.238281 50.183594 193.917969 50.453125 193.710938 C 50.253906 193.8125 49.625 193.96875 49.464844 193.886719 C 49.605469 193.75 50.03125 193.472656 50.304688 193.128906 C 50.003906 193.136719 49.644531 193.234375 49.351562 193.226562 C 49.84375 192.800781 50.273438 192.785156 50.574219 192.339844 C 50.691406 192.164062 50.691406 191.96875 50.765625 191.789062 C 50.917969 191.40625 51.070312 191.078125 51.074219 191.082031 C 51.121094 191.226562 51.085938 191.980469 51.074219 192.214844 C 51.230469 192.085938 51.46875 191.972656 51.625 192.046875 C 51.503906 192.402344 51.140625 192.410156 51.148438 192.769531 C 51.472656 192.738281 51.773438 192.847656 51.941406 192.988281 C 51.65625 193.015625 51.535156 192.964844 51.269531 193.070312 C 51.5 193.425781 51.933594 193.597656 52.085938 193.75 C 51.929688 193.828125 51.664062 193.925781 51.46875 193.824219 C 51.597656 193.925781 51.832031 194.09375 52.035156 194.230469 Z M 48.960938 197.429688 C 48.304688 198.277344 47.703125 199.121094 47.140625 199.859375 C 46.929688 199.859375 46.691406 199.847656 46.527344 199.84375 C 46.773438 199.652344 47.484375 199.3125 47.699219 199.050781 C 47.527344 199.148438 46.523438 199.472656 46.402344 199.453125 C 46.621094 199.320312 47.421875 198.78125 47.574219 198.570312 C 47.386719 198.652344 47.039062 198.808594 46.820312 198.808594 C 46.996094 198.644531 47.515625 198.332031 47.640625 198.066406 C 47.5 198.089844 47.113281 198.234375 46.945312 198.210938 C 47.164062 198.078125 47.550781 197.761719 47.753906 197.621094 C 47.621094 197.640625 46.875 198.007812 46.765625 197.941406 C 46.890625 197.824219 47.332031 197.515625 47.453125 197.402344 C 47.355469 197.417969 46.875 197.609375 46.753906 197.59375 C 46.929688 197.484375 47.5625 197.082031 47.710938 196.835938 C 47.613281 196.863281 47.171875 196.902344 47.101562 196.867188 C 47.25 196.714844 47.390625 196.902344 47.660156 196.394531 C 47.621094 196.199219 47.523438 196.117188 47.339844 195.960938 C 47.496094 195.890625 47.648438 195.867188 47.773438 195.984375 C 47.8125 195.429688 47.894531 195.238281 47.929688 194.6875 C 48.03125 194.847656 48.148438 195.546875 48.195312 195.738281 C 48.292969 195.648438 48.34375 195.648438 48.519531 195.691406 C 48.351562 195.875 48.261719 195.925781 48.339844 196.164062 C 48.832031 195.917969 48.902344 195.996094 48.894531 196.046875 C 48.878906 196.125 48.535156 196.320312 48.476562 196.398438 C 48.382812 196.523438 48.59375 196.570312 49.0625 197.039062 C 48.945312 197.097656 48.621094 197.054688 48.46875 196.980469 C 48.566406 197.054688 48.773438 197.253906 48.960938 197.429688 Z M 77.933594 186.484375 C 78.066406 186.128906 78.242188 185.796875 78.449219 185.457031 C 78.214844 185.441406 77.605469 185.6875 77.429688 185.777344 C 77.46875 185.902344 77.492188 186.160156 77.519531 186.304688 C 77.519531 186.304688 77.800781 186.414062 77.933594 186.484375 Z M 78.226562 188.714844 C 78.140625 188.554688 77.597656 188.101562 77.457031 187.832031 C 77.386719 187.679688 77.386719 187.441406 77.386719 187.238281 C 77.4375 187.074219 77.285156 186.644531 77.183594 186.566406 C 77.21875 186.398438 77.132812 186.101562 77.164062 185.933594 C 77.230469 185.609375 77.386719 185.277344 77.449219 184.953125 C 77.449219 184.953125 77.097656 185.453125 76.910156 185.957031 C 76.726562 186.453125 76.800781 187.039062 76.835938 187.5625 C 76.964844 187.605469 77.09375 187.734375 77.199219 187.855469 C 77.199219 187.9375 77.15625 188.230469 77.15625 188.308594 C 77.511719 188.25 77.886719 188.582031 78.226562 188.714844 Z M 55.269531 189.5 C 55.460938 189.648438 55.652344 189.796875 55.84375 189.945312 C 55.65625 189.351562 55.472656 188.757812 55.285156 188.160156 C 55.289062 187.847656 55.292969 187.535156 55.300781 187.222656 C 55.214844 186.902344 55.128906 186.585938 55.042969 186.265625 C 55.019531 185.960938 54.996094 185.652344 54.96875 185.347656 C 54.722656 185.796875 54.902344 186.226562 54.867188 186.667969 C 54.921875 186.941406 54.972656 187.21875 55.027344 187.496094 C 55.015625 187.867188 55.003906 188.242188 54.992188 188.617188 C 54.621094 189.453125 54.25 190.289062 53.878906 191.128906 C 53.332031 191.511719 52.554688 192.304688 52.003906 192.6875 C 54.078125 192.777344 54.71875 191.105469 55.269531 189.5 Z M 54.59375 182.117188 C 54.804688 183.25 54.960938 183.875 55.15625 184.902344 C 55.277344 185.25 55.621094 185.835938 55.742188 186.183594 C 56.0625 186.660156 55.953125 187.234375 56.507812 187.386719 C 55.886719 185.847656 55.269531 183.515625 54.59375 182.117188 Z M 39.855469 180 C 40.3125 180 40.335938 179.984375 40.511719 180.285156 C 40.898438 180.945312 40.878906 182.21875 41.425781 181.292969 C 41.621094 180.964844 41.875 180.972656 41.875 180.972656 C 41.96875 181.433594 41.980469 181.71875 42.222656 182.015625 C 42.445312 181.347656 43.230469 181.445312 43.230469 180.65625 C 42.882812 180.480469 42.292969 180.355469 41.945312 180.179688 C 41.691406 180.425781 41.386719 180.824219 41.132812 181.066406 C 41.175781 180.824219 41.289062 180.40625 41.328125 180.164062 C 41.105469 180.183594 40.914062 179.984375 40.691406 179.734375 C 40.324219 179.320312 40.207031 179.722656 39.855469 180 Z M 77.703125 182.160156 C 77.984375 182.269531 78.371094 181.65625 78.71875 181.957031 C 78.671875 181.972656 78.402344 182.242188 78.15625 182.46875 C 77.800781 182.796875 77.328125 183.570312 77.28125 183.636719 C 76.949219 183.976562 77.019531 183.613281 77.085938 183.332031 C 77.136719 183.113281 77.085938 182.90625 76.847656 183.078125 C 76.511719 183.324219 76.347656 183.703125 76.140625 183.929688 C 76.261719 183.664062 76.339844 183.386719 76.460938 183.121094 C 76.71875 182.539062 77.035156 182.601562 77.34375 182.253906 C 77.035156 182.066406 76.632812 182.09375 76.359375 182.1875 C 76.046875 182.292969 75.863281 182.480469 75.566406 182.59375 C 75.71875 182.28125 75.929688 181.988281 76.242188 181.898438 C 76.476562 181.832031 76.675781 181.957031 76.796875 181.894531 C 77.074219 181.757812 77.046875 181.449219 77.230469 181.566406 C 77.472656 181.730469 77.480469 182.078125 77.703125 182.160156 Z M 72.15625 185.367188 C 72.453125 184.742188 73.117188 184.058594 73.691406 183.449219 C 74.191406 182.917969 74.976562 181.867188 75.609375 182.019531 C 75.429688 182.183594 75.28125 182.421875 75.15625 182.65625 C 74.828125 183.273438 74.085938 186.761719 73.570312 186.371094 C 73.679688 186.042969 73.851562 184.960938 73.957031 184.636719 C 73.585938 184.902344 73.242188 185.335938 72.96875 185.820312 C 72.824219 186.085938 72.753906 186.425781 72.632812 186.667969 C 72.632812 186.667969 71.808594 186.867188 71.699219 186.878906 C 71.605469 186.835938 71.492188 186.457031 71.445312 186.347656 C 71.8125 185.320312 71.984375 184.871094 71.683594 184.054688 C 71.519531 184.34375 71.382812 184.71875 71.199219 185.007812 C 71.054688 185.234375 70.851562 185.378906 70.738281 185.617188 C 70.765625 185.1875 70.636719 184.789062 70.648438 184.425781 C 70.664062 183.996094 70.808594 183.53125 70.773438 183.402344 C 70.71875 183.394531 70.339844 183.726562 70.230469 183.90625 C 70.230469 184.101562 70.003906 184.351562 70.003906 184.550781 C 69.8125 185.015625 69.464844 184.722656 69.042969 184.648438 C 68.902344 184.625 68.425781 184.496094 68.554688 184.089844 C 68.652344 183.78125 69.269531 183.394531 69.339844 183.210938 C 69.488281 182.839844 69.957031 183.15625 70.28125 183.210938 C 70.71875 183.285156 71.019531 183.304688 71.375 183.457031 C 71.582031 183.546875 71.8125 183.71875 72.050781 183.867188 C 72.445312 184.113281 72.117188 185.375 72.15625 185.367188 Z M 37.363281 185.996094 C 37.050781 186.203125 36.78125 186.394531 36.5 186.585938 C 36.273438 186.828125 35.828125 187.222656 35.605469 187.464844 C 36.136719 187.210938 36.890625 186.796875 37.421875 186.542969 C 37.574219 186.484375 38.679688 185.914062 39.371094 185.109375 C 38.789062 185.28125 37.367188 185.996094 37.363281 185.996094 Z M 42.894531 187.457031 C 42.972656 187.261719 43.089844 186.867188 43.089844 186.601562 C 43.089844 186.339844 43.304688 185.609375 43.304688 185.609375 C 43.269531 185.382812 43.332031 185.15625 43.296875 184.933594 C 43.222656 184.503906 43.039062 184.175781 42.964844 183.746094 C 43.257812 183.875 43.402344 184.273438 43.496094 184.660156 C 43.589844 185.042969 43.628906 185.414062 43.710938 186.105469 C 43.691406 186.304688 43.65625 186.945312 43.65625 187.09375 C 43.515625 187.144531 43.308594 187.257812 43.1875 187.417969 C 43.191406 187.519531 43.289062 187.921875 43.289062 188.027344 C 43.144531 188.097656 43.003906 188.011719 42.859375 188.082031 C 42.859375 188.082031 42.53125 188.15625 42.195312 188.300781 C 42.347656 187.96875 42.714844 187.867188 42.894531 187.457031 Z M 39.277344 184.320312 C 38.976562 184.386719 37.761719 184.949219 37.582031 184.886719 C 37.125 184.695312 36.589844 184.824219 36.132812 184.632812 C 35.777344 184.828125 35.421875 185.023438 35.066406 185.21875 C 34.746094 185.324219 34.425781 185.429688 34.105469 185.53125 C 34.199219 185.359375 34.292969 185.183594 34.382812 185.007812 C 34.421875 184.816406 34.460938 184.621094 34.5 184.429688 C 33.574219 185.449219 33.707031 185.773438 34.082031 186.46875 C 34.226562 186.734375 34.367188 186.996094 34.511719 187.261719 C 34.191406 187.722656 33.734375 187.917969 33.539062 188.5625 C 33.824219 188.292969 34.117188 188.105469 34.402344 187.839844 C 34.519531 187.675781 34.632812 187.511719 34.75 187.347656 C 34.730469 187.160156 34.710938 186.96875 34.691406 186.78125 C 34.804688 186.609375 34.917969 186.441406 35.03125 186.269531 C 35.03125 186.269531 35.75 184.976562 36.011719 184.984375 C 36.28125 184.992188 37.875 185.140625 37.875 185.140625 C 38.261719 185 39.117188 184.894531 39.277344 184.320312 " fill-opacity="1" fill-rule="evenodd"/></svg>